<svg xmlns="http://www.w3.org/2000/svg" xmlns:xlink="http://www.w3.org/1999/xlink" viewBox="0 0 137.55 101.8">
    <defs>
      <mask id="logo-mask">
        <g id="mask_text" data-name="mask  text">
          <path class="cls-1" d="M373.68,307.16a49.91,49.91,0,0,0,97.5,2.21" transform="translate(-355.17 -246.74)"/>
          <path class="cls-1" d="M471.82,289a49.91,49.91,0,0,0-97.9-2.05" transform="translate(-355.17 -246.74)"/>
          <g>
            <path class="cls-t" d="M444.07,293.09q-.22,0-.45.45l-.81,1-1.38,2Q433.36,308,429.88,308A1.63,1.63,0,0,1,428,306.1a9.47,9.47,0,0,1,1.77-5.22q3.79-5.76,3.84-5.81c1.46-2.51,2.62-4.49,2.62-6.36a6.41,6.41,0,0,0-1.32-4.09,4,4,0,0,0-3.24-1.68q-4.26,0-12.74,12c1.57-2.67,2.37-4.86,2.37-6.59a6.12,6.12,0,0,0-1.21-3.86,3.75,3.75,0,0,0-3.09-1.54q-3.93,0-12,12,2.64-4.68,2.64-7.31a5.36,5.36,0,0,0-1-3.3,3,3,0,0,0-2.46-1.38c-1.46,0-3.54,1.7-6.23,5.12-1.23,1.57-2.17,2.8-2.84,3.72a2.78,2.78,0,0,1,.14.35,1.67,1.67,0,0,1,.08.3h0v0l.08-.11h0v0l0,0a.53.53,0,0,1,.1-.06c4.12-5.69,6.87-8.56,8.24-8.56.69,0,1,.45,1,1.36,0,1.67-2.14,6-6.55,13l-6.39,10.21a21.55,21.55,0,0,1,3-.17,15,15,0,0,1,2.57.17,123.28,123.28,0,0,1,11.16-17.43q5.58-7.17,8.05-7.17,1.65,0,1.65,2c0,1.52-2,5.63-6.13,12.35l-6.35,10.22a21.93,21.93,0,0,1,3.05-.18,13.16,13.16,0,0,1,2.46.18q14.34-24.62,20.25-24.61a1.63,1.63,0,0,1,1.83,1.86c0,1.12-1.19,3.84-3.69,7.48-2,2.87-3,4.5-3.26,4.86a10.07,10.07,0,0,0-1.7,5.49,5.19,5.19,0,0,0,1.27,3.74,4.32,4.32,0,0,0,3.45,1.59q4,0,12.44-11.87l1.93-2.68a4.71,4.71,0,0,0,.44-.73C444.33,293.18,444.25,293.09,444.07,293.09Z" transform="translate(-355.17 -246.74)"/>
            <path class="cls-2" d="M395.45,291.89c0-.12-3.18,5.09-11.14,5.26a32.35,32.35,0,0,1-12.75-3.22s-6-2.59-11.49.8" transform="translate(-355.17 -246.74)"/>
          </g>
          <g>
            <path class="cls-t" d="M454.31,278.59a3.93,3.93,0,0,0,2.8-1.26,3.8,3.8,0,0,0,1.28-2.74,1.65,1.65,0,0,0-1.87-1.87,3.81,3.81,0,0,0-2.71,1.31,3.86,3.86,0,0,0-1.28,2.69C452.53,278,453.13,278.59,454.31,278.59Z" transform="translate(-355.17 -246.74)"/>
            <path class="cls-t" d="M449,303.43h-.29a53.83,53.83,0,0,1-8.85,5.85l4.18-7.63c4.9-8.47,8.36-14.41,10.78-18.35a23.72,23.72,0,0,1-3.36.32,9.09,9.09,0,0,1-2.13-.32q-5.24,9-8.54,14.8l-7.95,14.13-.63.32a131.93,131.93,0,0,0-12.72,6,58.89,58.89,0,0,0-6.54,4.54q-7,5.49-7,10.71c0,2.85,1.55,4.27,4.63,4.27q5.19,0,12.45-5.95c4.57-3.75,9.41-9.91,14.1-17.93l2.31-4a59.91,59.91,0,0,0,10-6.72ZM432,314q-8.18,13.67-12.12,18.12-4.68,5.31-9.45,5.31a3.93,3.93,0,0,1-2.72-1,3.12,3.12,0,0,1-1.09-2.43q0-5.4,9.49-11.94,3.49-2.4,16.44-9Z" transform="translate(-355.17 -246.74)"/>
            <path class="cls-3" d="M448.87,303.61s9.39-7.66,21.54-5.05c12.9,2.78,16.36.3,16.36.3" transform="translate(-355.17 -246.74)"/>
          </g>
        </g>
      </mask>
      <style>

        @keyframes logo-ani1{
          from{stroke-dashoffset:483;}
          to{stroke-dashoffset:0;}
        }

        @keyframes logo-ani2{
          from{stroke-dashoffset:140;}
          to{stroke-dashoffset:0;}
        }
        @keyframes logo-ani3{
          from{stroke-dashoffset:138;}
          to{stroke-dashoffset:0;}
        }

        .cls-t{
          fill: rgb(255, 255, 255);
        }

        
        .cls-1, .cls-2, .cls-3, .cls-4, .cls-5, .cls-6 {
          fill: none;
          stroke-miterlimit: 10;
        }
  
        .cls-1, .cls-2, .cls-3 {
          stroke: #000;
          stroke: rgb(255, 255, 255);
          
        }
  
        .cls-1 {
          stroke-width: 2px;
        }
  
        .cls-2 {
          stroke-width: 0.85px;
        }
  
        .cls-3 {
          stroke-width: 0.85px;
        }
  
        .cls-4 {
          stroke-width: 4.8px;
          stroke: url(#linear-gradient);
          stroke-dasharray:483;
          stroke-dashoffset:0;
          animation:logo-ani1 2.5s linear;
        }
  
        .cls-5, .cls-6 {
          stroke-width: 2px;
        }
  
        .cls-5 {
          stroke: url(#linear-gradient-2);
          stroke-dasharray:140;
          stroke-dashoffset:0;
          animation:logo-ani2 2.5s linear;
        }
  
        .cls-6 {
          stroke: url(#linear-gradient-3);
          stroke-dasharray:138;
          stroke-dashoffset:0;
          animation:logo-ani3 2.5s linear;
        }

      </style>
      <linearGradient id="linear-gradient" x1="355.17" y1="303.6" x2="492.71" y2="303.6" gradientUnits="userSpaceOnUse">
        <stop offset="0" stop-color="#c8e5ff"/>
        <stop offset="1" stop-color="#cab9ff"/>
      </linearGradient>
      <linearGradient id="linear-gradient-2" x1="372.7" y1="268.51" x2="473.46" y2="268.51" xlink:href="#linear-gradient"/>
      <linearGradient id="linear-gradient-3" x1="371.92" y1="327.03" x2="472.16" y2="327.03" xlink:href="#linear-gradient"/>
    </defs>

    <g mask="url(#logo-mask)" id="mask_path" data-name="mask path">
      <path class="cls-4" d="M356.55,295.79a18.31,18.31,0,0,1,19.77,0s13.79,4.84,21.7-6.82c0,0,7.89-11,7.89-3.28a12.11,12.11,0,0,1-1.63,5.66c-2,3.61-6.63,11.95-10.58,18.42,0,0,22.74-37,25.32-23.23,0,0,1,1.75-1.73,6.5,0,0-6.37,11-9.64,16.73,0,0,24.12-33.06,25.74-25.93,0,0,2.4,1.87-.19,7.38a37,37,0,0,1-2,3.57c-.8,1.14-2.73,4-2.73,4s-2,2.7-2,4.72a8,8,0,0,0,.66,3.38,3.07,3.07,0,0,0,4,.92s7.35-7.83,15.49-26.09c0,0,3.92-.94,5.77,1.17L448,290.33l-7,12-3.25,5.83-.6,1.21-1.68,3-.42.9-.37.85-4.29,6.58S412.73,346.58,406.58,335c0,0-2.37-11.59,20.24-19.09s21.12-14.61,28.78-16a38.62,38.62,0,0,1,17.2-.86s9.73,2.45,13.73-.05c0,0-23.78-5.52-23-10.77s-1.43-15.5-1.43-15.5l-1.51-2.16-8,8.1" transform="translate(-355.17 -246.74)"/>
      <path class="cls-5" d="M373.68,287.55s7.6-38.68,47.26-39.81c0,0,25.05-.47,38.66,15.79,0,0,8.66,7.18,12.88,26.55" transform="translate(-355.17 -246.74)"/>
      <path class="cls-6" d="M471.18,308.64s-7.29,36.79-48.51,38.9c0,0-42.72-1.79-49.77-41.84" transform="translate(-355.17 -246.74)"/>
    </g>
  </svg>
